<svg width="94" height="17" viewBox="0 0 94 17" fill="none" xmlns="http://www.w3.org/2000/svg">
<g clip-path="url(#clip0_20_53)">
<path d="M12.3914 16.4357H3.59366C1.59553 16.4357 0 14.7955 0 12.8421V4.04432C0 2.04618 1.59553 0.450653 3.59366 0.450653H12.3914C14.3448 0.450653 15.9851 2.04618 15.9851 4.04432V12.8421C16 14.7955 14.3448 16.4357 12.3914 16.4357Z" fill="#20313D"/>
<path d="M5.63654 11.0526H8.4399V12.3797H4.04102V4.47665H5.63654V11.0526Z" fill="white"/>
<path d="M9.9907 10.2176L11.3178 4.49158H13.0923L10.8257 12.3947H9.18548L6.87421 4.49158H8.64867L9.9907 10.2176Z" fill="white"/>
</g>
<g clip-path="url(#clip1_20_53)">
<path d="M23.3545 6.8267H25.2228V7.71472H22.2802V2.43332H23.3389V6.8267H23.3545Z" fill="#20313D"/>
<path d="M28.5701 5.42456H26.9043V6.8267H28.866V7.71472H25.83V2.43332H28.8504V3.32134H26.8887V4.56769H28.5546V5.42456H28.5701Z" fill="#20313D"/>
<path d="M33.2097 5.5336C33.2097 6.23467 33.0385 6.79552 32.7115 7.18501C32.3846 7.57449 31.9175 7.77702 31.3259 7.77702C30.7343 7.77702 30.2672 7.59007 29.9247 7.20059C29.5821 6.8111 29.4109 6.26583 29.4109 5.56476V4.66115C29.4109 3.92892 29.5821 3.36806 29.9091 2.963C30.2516 2.55794 30.7187 2.35541 31.3103 2.35541C31.9019 2.35541 32.3534 2.55794 32.696 2.963C33.0385 3.36806 33.2097 3.92892 33.2097 4.64558V5.5336ZM32.1355 4.66115C32.1355 4.17819 32.0732 3.83545 31.9331 3.60176C31.793 3.36807 31.5906 3.25901 31.2947 3.25901C31.0145 3.25901 30.7965 3.36807 30.672 3.60176C30.5319 3.81987 30.4696 4.16261 30.454 4.62999V5.56476C30.454 6.03214 30.5163 6.3593 30.6564 6.59299C30.7965 6.81111 30.9989 6.92016 31.2947 6.92016C31.575 6.92016 31.7774 6.81111 31.9175 6.59299C32.0576 6.37488 32.1199 6.04771 32.1199 5.59591V4.66115H32.1355Z" fill="#20313D"/>
<path d="M37.6625 7.69913H36.6038L35.0469 4.24051V7.69913H33.9882V2.41772H35.0469L36.6038 5.89192V2.41772H37.6625V7.69913Z" fill="#20313D"/>
<path d="M41.1033 6.62415H39.6553L39.3751 7.69913H38.2541L39.9044 2.41772H40.8853L42.5512 7.69913H41.4146L41.1033 6.62415ZM39.8733 5.73613H40.8542L40.3559 3.85103L39.8733 5.73613Z" fill="#20313D"/>
<path d="M44.6063 5.76729H44.077V7.69913H43.0183V2.41772H44.7153C45.2447 2.41772 45.665 2.55794 45.9453 2.83837C46.2411 3.1188 46.3812 3.50828 46.3812 4.0224C46.3812 4.72347 46.1321 5.22201 45.6183 5.50244L46.5369 7.66797V7.71471H45.3848L44.6063 5.76729ZM44.077 4.87927H44.6842C44.9021 4.87927 45.0578 4.80137 45.1668 4.66115C45.2758 4.52094 45.3225 4.33399 45.3225 4.1003C45.3225 3.5706 45.1201 3.30575 44.6997 3.30575H44.077V4.87927Z" fill="#20313D"/>
<path d="M47.1129 7.69913V2.41772H48.5142C49.1369 2.41772 49.6196 2.62026 49.9932 3.00974C50.3669 3.39923 50.5381 3.9445 50.5537 4.61441V5.47128C50.5537 6.17235 50.3669 6.70205 50.0088 7.10711C49.6351 7.4966 49.1369 7.69913 48.4986 7.69913H47.1129ZM48.1872 3.30575V6.81111H48.4986C48.8567 6.81111 49.1058 6.71763 49.2459 6.53067C49.386 6.34372 49.4639 6.01656 49.4794 5.56476V4.64558C49.4794 4.14704 49.4172 3.80429 49.277 3.61734C49.1369 3.43038 48.9034 3.32133 48.5764 3.30575H48.1872Z" fill="#20313D"/>
<path d="M55.0221 5.5336C55.0221 6.23467 54.8508 6.79552 54.5239 7.18501C54.1969 7.57449 53.7298 7.77702 53.1382 7.77702C52.5466 7.77702 52.0795 7.59007 51.737 7.20059C51.3945 6.8111 51.2232 6.26583 51.2232 5.56476V4.66115C51.2232 3.92892 51.3945 3.36806 51.7214 2.963C52.0639 2.55794 52.531 2.35541 53.1226 2.35541C53.7143 2.35541 54.1658 2.55794 54.5083 2.963C54.8508 3.36806 55.0221 3.92892 55.0221 4.64558V5.5336ZM53.9634 4.66115C53.9634 4.17819 53.9011 3.83545 53.761 3.60176C53.6208 3.36807 53.4184 3.25901 53.1226 3.25901C52.8424 3.25901 52.6244 3.36807 52.4999 3.60176C52.3597 3.81987 52.2975 4.16261 52.2819 4.62999V5.56476C52.2819 6.03214 52.3442 6.3593 52.4843 6.59299C52.6244 6.81111 52.8424 6.92016 53.1226 6.92016C53.4029 6.92016 53.6053 6.81111 53.7454 6.59299C53.8855 6.37488 53.9478 6.04771 53.9478 5.59591V4.66115H53.9634Z" fill="#20313D"/>
<path d="M59.2257 6.25025L60.1132 2.41772H61.2964L59.7706 7.69913H58.6652L57.155 2.41772H58.3383L59.2257 6.25025Z" fill="#20313D"/>
<path d="M64.0366 6.62415H62.5886L62.3084 7.69913H61.1718L62.8222 2.41772H63.803L65.4689 7.69913H64.3324L64.0366 6.62415ZM62.8222 5.73613H63.803L63.3048 3.85103L62.8222 5.73613Z" fill="#20313D"/>
<path d="M67.0258 6.8267H68.8941V7.71472H65.9515V2.43332H67.0102V6.8267H67.0258Z" fill="#20313D"/>
<path d="M69.5013 7.69913V2.41772H70.9025C71.5253 2.41772 72.0079 2.62026 72.3816 3.00974C72.7553 3.39923 72.9265 3.9445 72.9421 4.61441V5.47128C72.9421 6.17235 72.7553 6.70205 72.3972 7.10711C72.0235 7.4966 71.5253 7.69913 70.887 7.69913H69.5013ZM70.5756 3.30575V6.81111H70.887C71.245 6.81111 71.4942 6.71763 71.6343 6.53067C71.7744 6.34372 71.8522 6.01656 71.8678 5.56476V4.64558C71.8678 4.14704 71.8055 3.80429 71.6654 3.61734C71.5253 3.43038 71.2918 3.32133 70.9648 3.30575H70.5756Z" fill="#20313D"/>
<path d="M76.4296 5.42456H74.7637V6.8267H76.7254V7.71472H73.6894V2.43332H76.7098V3.32134H74.7481V4.56769H76.4296V5.42456Z" fill="#20313D"/>
<path d="M80.8356 3.30575H79.5278V7.69913H78.4535V3.30575H77.1769V2.41772H80.8356V3.30575Z" fill="#20313D"/>
<path d="M83.529 6.62415H82.0811L81.8009 7.69913H80.6799L82.3302 2.41772H83.3111L84.977 7.69913H83.8404L83.529 6.62415ZM82.2991 5.73613H83.2799L82.7817 3.85103L82.2991 5.73613Z" fill="#20313D"/>
<path d="M87.0321 5.76729H86.5028V7.69913H85.4441V2.41772H87.1411C87.6704 2.41772 88.0908 2.55794 88.371 2.83837C88.6669 3.1188 88.807 3.50828 88.807 4.0224C88.807 4.72347 88.5579 5.22201 88.0441 5.50244L88.9627 7.66797V7.71471H87.8106L87.0321 5.76729ZM86.5028 4.87927H87.1099C87.3279 4.87927 87.4836 4.80137 87.5926 4.66115C87.7016 4.52094 87.7483 4.33399 87.7483 4.1003C87.7483 3.5706 87.5459 3.30575 87.1255 3.30575H86.5028V4.87927Z" fill="#20313D"/>
<path d="M93.2597 5.5336C93.2597 6.23467 93.0885 6.79552 92.7615 7.18501C92.4346 7.57449 91.9675 7.77702 91.3759 7.77702C90.7842 7.77702 90.3172 7.59007 89.9747 7.20059C89.6321 6.8111 89.4609 6.26583 89.4609 5.56476V4.66115C89.4609 3.92892 89.6321 3.36806 89.9591 2.963C90.3016 2.55794 90.7687 2.35541 91.3603 2.35541C91.9519 2.35541 92.4034 2.55794 92.746 2.963C93.0885 3.36806 93.2597 3.92892 93.2597 4.64558V5.5336ZM92.201 4.66115C92.201 4.17819 92.1388 3.83545 91.9986 3.60176C91.8585 3.36807 91.6561 3.25901 91.3603 3.25901C91.0801 3.25901 90.8621 3.36807 90.7375 3.60176C90.5974 3.81987 90.5351 4.16261 90.5196 4.62999V5.56476C90.5196 6.03214 90.5818 6.3593 90.722 6.59299C90.8621 6.81111 91.0801 6.92016 91.3603 6.92016C91.6406 6.92016 91.8429 6.81111 91.9831 6.59299C92.1232 6.37488 92.1855 6.04771 92.1855 5.59591V4.66115H92.201Z" fill="#20313D"/>
<path d="M24.6 13.557H22.7473V15.816H22.3737V10.9864H24.8958V11.3447H22.7629V13.2142H24.6156V13.557H24.6Z" fill="#20313D"/>
<path d="M27.2001 13.8063H26.0635V15.816H25.6743V10.9864H26.9977C27.4336 10.9864 27.7761 11.111 28.0253 11.3603C28.2744 11.6096 28.3833 11.9679 28.3833 12.4041C28.3833 12.7157 28.3055 12.9961 28.1654 13.2298C28.0097 13.4635 27.8073 13.6349 27.5582 13.7128L28.5702 15.7693V15.816H28.1654L27.2001 13.8063ZM26.0635 13.4479H27.0755C27.3558 13.4479 27.5893 13.3545 27.7606 13.1519C27.9318 12.9494 28.0097 12.7001 28.0097 12.4041C28.0097 12.0614 27.9163 11.7965 27.745 11.6096C27.5737 11.4226 27.3246 11.3291 26.9977 11.3291H26.0635V13.4479Z" fill="#20313D"/>
<path d="M32.4313 13.9153C32.4313 14.5385 32.2912 15.0214 32.0265 15.3642C31.7463 15.7069 31.3726 15.8783 30.8744 15.8783C30.3917 15.8783 30.0025 15.7069 29.7223 15.3642C29.442 15.0214 29.3019 14.5385 29.3019 13.9309V12.8715C29.3019 12.2483 29.442 11.7653 29.7223 11.4226C30.0025 11.0799 30.3762 10.9085 30.8744 10.9085C31.3726 10.9085 31.7618 11.0799 32.0265 11.4226C32.3067 11.7653 32.4313 12.2483 32.4313 12.8871V13.9153ZM32.0421 12.8715C32.0421 12.3418 31.9331 11.9523 31.7307 11.6719C31.5283 11.407 31.2325 11.2668 30.8432 11.2668C30.4696 11.2668 30.1893 11.3914 29.9714 11.6563C29.769 11.9211 29.66 12.3106 29.66 12.8247V13.9153C29.66 14.445 29.769 14.8501 29.9714 15.1149C30.1893 15.3798 30.4696 15.52 30.8432 15.52C31.2325 15.52 31.5283 15.3798 31.7151 15.1149C31.9175 14.8501 32.0109 14.445 32.0109 13.9153V12.8715H32.0421Z" fill="#20313D"/>
<path d="M36.4792 15.816H36.1056L33.8169 11.703V15.816H33.4277V10.9864H33.8169L36.1056 15.1149V10.9864H36.4792V15.816Z" fill="#20313D"/>
<path d="M40.2937 11.3447H38.9236V15.816H38.5344V11.3447H37.1643V10.9864H40.2937V11.3447Z" fill="#20313D"/>
<path d="M43.3297 13.4947H41.4614V15.4577H43.6255V15.816H41.0877V10.9864H43.6099V11.3447H41.4614V13.1519H43.3297V13.4947Z" fill="#20313D"/>
<path d="M47.5022 15.816H47.1285L44.8398 11.703V15.816H44.4506V10.9864H44.8398L47.1285 15.1149V10.9864H47.5022V15.816Z" fill="#20313D"/>
<path d="M48.6387 15.816V10.9864H49.7753C50.3046 10.9864 50.7094 11.1578 51.0208 11.4849C51.3322 11.8277 51.4879 12.2795 51.4879 12.8715V13.8842C51.4879 14.4917 51.3322 14.9591 51.0208 15.3019C50.7094 15.6446 50.2735 15.816 49.7286 15.816H48.6387ZM49.028 11.3447V15.4732H49.7597C50.1956 15.4732 50.5226 15.333 50.7561 15.0682C50.9897 14.8033 51.1142 14.4138 51.1142 13.9309V12.9182C51.1142 12.4197 51.0052 12.0302 50.7717 11.7654C50.5382 11.5005 50.2112 11.3603 49.7597 11.3603H49.028V11.3447Z" fill="#20313D"/>
<path d="M54.664 13.1831C54.4927 12.9338 54.3682 12.7157 54.2903 12.5287C54.228 12.3418 54.1813 12.1704 54.1813 12.0146C54.1813 11.6719 54.2747 11.407 54.446 11.2045C54.6173 11.002 54.8508 10.9085 55.131 10.9085C55.3957 10.9085 55.5981 11.002 55.7694 11.1733C55.9406 11.3447 56.0185 11.5784 56.0185 11.8588C56.0185 12.186 55.8784 12.482 55.5825 12.778L55.1155 13.2142L56.2053 14.741C56.361 14.4294 56.4388 14.0555 56.4388 13.666H56.7814C56.7814 14.2113 56.6568 14.6787 56.4233 15.0526L56.9838 15.8316H56.5323L56.1897 15.3642C56.0496 15.5355 55.8784 15.6602 55.6915 15.7537C55.5047 15.8471 55.3023 15.8939 55.0999 15.8939C54.7107 15.8939 54.4149 15.7692 54.1813 15.5355C53.9478 15.3019 53.8388 14.9903 53.8388 14.5852C53.8388 14.3515 53.9011 14.1334 54.0101 13.9153C54.1346 13.7128 54.3526 13.4635 54.664 13.1831ZM55.1155 15.5355C55.458 15.5355 55.7538 15.3798 56.0185 15.0526L54.8975 13.4947L54.8664 13.4479L54.7418 13.557C54.3837 13.8997 54.2125 14.2425 54.2125 14.5696C54.2125 14.8656 54.2903 15.0993 54.4616 15.2707C54.6173 15.4421 54.8352 15.5355 55.1155 15.5355ZM54.5706 11.999C54.5706 12.2639 54.6951 12.5755 54.9442 12.9338L55.2867 12.6222C55.4113 12.5132 55.5047 12.4041 55.567 12.295C55.6448 12.1704 55.676 12.0302 55.676 11.8744C55.676 11.703 55.6293 11.5628 55.5358 11.4382C55.4424 11.3291 55.3023 11.2668 55.1466 11.2668C54.9753 11.2668 54.8352 11.3291 54.7262 11.4693C54.6173 11.594 54.5706 11.7809 54.5706 11.999Z" fill="#20313D"/>
<path d="M62.0281 10.9708V14.3983C62.0281 14.8656 61.9036 15.224 61.6545 15.4888C61.4054 15.7381 61.0473 15.8783 60.5958 15.8783C60.1287 15.8783 59.7706 15.7537 59.5215 15.5044C59.2724 15.2551 59.1479 14.8812 59.1479 14.3983V10.9864H59.5215V14.3983C59.5215 15.1616 59.8796 15.5511 60.5802 15.5511C61.2808 15.5511 61.6233 15.1772 61.6389 14.445V11.002H62.0281V10.9708Z" fill="#20313D"/>
<path d="M63.5539 15.816H63.1802V10.9864H63.5539V15.816Z" fill="#20313D"/>
<path d="M66.2941 15.816V10.9864H67.4306C67.96 10.9864 68.3648 11.1578 68.6761 11.4849C68.9875 11.8277 69.1432 12.2795 69.1432 12.8715V13.8842C69.1432 14.4917 68.9875 14.9591 68.6761 15.3019C68.3648 15.6446 67.9288 15.816 67.3839 15.816H66.2941ZM66.6677 11.3447V15.4732H67.3995C67.8354 15.4732 68.1624 15.333 68.3959 15.0682C68.6294 14.8033 68.754 14.4138 68.754 13.9309V12.9182C68.754 12.4197 68.645 12.0302 68.4115 11.7654C68.1779 11.5005 67.851 11.3603 67.3995 11.3603H66.6677V11.3447Z" fill="#20313D"/>
<path d="M72.4127 13.4947H70.5444V15.4577H72.693V15.816H70.1552V10.9864H72.6774V11.3447H70.5289V13.1519H72.3972V13.4947H72.4127Z" fill="#20313D"/>
<path d="M75.8224 14.6319C75.8224 14.3671 75.7445 14.149 75.5888 13.9932C75.4331 13.8374 75.1529 13.6972 74.7325 13.5414C74.3122 13.4012 74.0008 13.2454 73.814 13.0584C73.5493 12.8247 73.4247 12.5287 73.4247 12.1548C73.4247 11.7809 73.5493 11.4849 73.814 11.2512C74.0631 11.0175 74.39 10.9085 74.7948 10.9085C75.1996 10.9085 75.5421 11.0487 75.8068 11.3135C76.0715 11.5784 76.196 11.9367 76.196 12.3574H75.8068C75.8068 12.0302 75.7134 11.7653 75.5266 11.5628C75.3397 11.3603 75.0906 11.2668 74.7792 11.2668C74.4679 11.2668 74.2343 11.3447 74.0631 11.5161C73.8918 11.6874 73.7984 11.89 73.7984 12.1548C73.7984 12.4041 73.8762 12.5911 74.0475 12.7468C74.2188 12.9026 74.4834 13.0428 74.8415 13.1675C75.1996 13.2921 75.4799 13.4168 75.6667 13.5414C75.8535 13.666 75.9936 13.8218 76.0715 13.9932C76.1649 14.1646 76.2116 14.3671 76.2116 14.6164C76.2116 14.9903 76.087 15.3019 75.8224 15.5355C75.5733 15.7692 75.2307 15.8783 74.8104 15.8783C74.5301 15.8783 74.2655 15.816 74.0319 15.7069C73.7984 15.5979 73.6116 15.4265 73.487 15.2084C73.3625 14.9903 73.2846 14.7254 73.2846 14.4294H73.6583C73.6583 14.7722 73.7673 15.037 73.9697 15.2395C74.172 15.4421 74.4523 15.5355 74.8104 15.5355C75.1218 15.5355 75.3553 15.4577 75.5421 15.2863C75.729 15.1149 75.8224 14.8968 75.8224 14.6319Z" fill="#20313D"/>
<path d="M77.5038 15.816H77.1302V10.9864H77.5038V15.816Z" fill="#20313D"/>
<path d="M81.6608 15.2551C81.5051 15.4576 81.3027 15.6134 81.0536 15.7225C80.8045 15.8316 80.5398 15.8783 80.244 15.8783C79.7458 15.8783 79.3566 15.7069 79.0763 15.3798C78.7961 15.0526 78.6404 14.5852 78.6404 13.9932V12.8247C78.6404 12.2016 78.7805 11.7342 79.0452 11.407C79.3098 11.0799 79.6991 10.9085 80.1973 10.9085C80.6488 10.9085 80.9913 11.0331 81.2404 11.2824C81.4895 11.5317 81.6296 11.89 81.6608 12.3418H81.2871C81.2404 11.9679 81.1314 11.703 80.9602 11.5317C80.7889 11.3603 80.5242 11.2668 80.1973 11.2668C79.8081 11.2668 79.5122 11.3914 79.3098 11.6563C79.1075 11.9211 79.014 12.3106 79.014 12.8092V13.9309C79.014 14.4294 79.123 14.8345 79.341 15.0993C79.559 15.3798 79.8548 15.52 80.244 15.52C80.6644 15.52 81.0069 15.3798 81.2871 15.1149V13.853H80.2284V13.4947H81.6764V15.2551H81.6608Z" fill="#20313D"/>
<path d="M85.8022 15.816H85.4285L83.1398 11.703V15.816H82.7506V10.9864H83.1398L85.4285 15.1149V10.9864H85.8022V15.816Z" fill="#20313D"/>
<path d="M89.1962 13.4947H87.3279V15.4577H89.492V15.816H86.9543V10.9864H89.4764V11.3447H87.3279V13.1519H89.1962V13.4947Z" fill="#20313D"/>
<path d="M91.8274 13.8063H90.6908V15.816H90.3016V10.9864H91.625C92.0609 10.9864 92.4034 11.111 92.6525 11.3603C92.9016 11.6096 93.0106 11.9679 93.0106 12.4041C93.0106 12.7157 92.9328 12.9961 92.7771 13.2298C92.6214 13.4635 92.419 13.6349 92.1699 13.7128L93.1819 15.7693V15.816H92.7771L91.8274 13.8063ZM90.6908 13.4479H91.7028C91.9831 13.4479 92.2166 13.3545 92.3879 13.1519C92.5591 12.9494 92.637 12.7001 92.637 12.4041C92.637 12.0614 92.5436 11.7965 92.3723 11.6096C92.201 11.4226 91.9519 11.3291 91.625 11.3291H90.6908V13.4479Z" fill="#20313D"/>
</g>
<defs>
<clipPath id="clip0_20_53">
<rect width="16" height="16" fill="white" transform="translate(0 0.435638)"/>
</clipPath>
<clipPath id="clip1_20_53">
<rect width="71.5556" height="16" fill="white" transform="translate(22 1)"/>
</clipPath>
</defs>
</svg>
