<?xml version="1.0" encoding="utf-8"?>
<!-- Generator: Adobe Illustrator 18.0.0, SVG Export Plug-In . SVG Version: 6.00 Build 0)  -->
<!DOCTYPE svg PUBLIC "-//W3C//DTD SVG 1.1//EN" "http://www.w3.org/Graphics/SVG/1.1/DTD/svg11.dtd">
<svg version="1.1" id="Layer_1" xmlns="http://www.w3.org/2000/svg" xmlns:xlink="http://www.w3.org/1999/xlink" x="0px" y="0px"
	 viewBox="0 0 262 262" enable-background="new 0 0 262 262" xml:space="preserve">
<g>
	<path fill="#FFEC00" d="M261,114.8C253,50.1,197.9,0,131,0h-7.1l0.1,0.2l3.2,7.1l5.2,7.1l4,10.5l-0.1,4.5l-3.9,6.8l2.7,8.5l10,2.8
		l5.3,5.3l9,17.6l-0.2,5.1l1.8,4.8l1,2.2l-0.3,8.9l-15.6,7.8l-5.3-0.8l-15.2,6.1l2.2,10.6l4.5,10.1l-10.5,7.2l1.7,7.5l3.8,7.9
		l2.2,8.3l-1.8,1.8l1.8,4.4l10.8,12.7l-6.5,12.7c0,0,4.7,2.7,6.5,4.8c1.8,2.1,2.2,5.3,2.2,5.3l-1.9,8.7l-11.9,19.2l-4.6,2.2l-1-0.1
		l-10-4l-14.2,14.2l18.2,19.8l4.5,3.9l0.4,0.3h9c66.9,0,122-50.1,130-114.8c0.7-5.3,1-10.7,1-16.2S261.7,120.1,261,114.8z"/>
	<path fill="#FFFFFF" d="M121.6,261.7l-4.5-3.9l-18.2-19.8l14.2-14.2l10,4l1,0.1l4.6-2.2l11.9-19.2l1.9-8.7c0,0-0.4-3.2-2.2-5.3
		c-1.8-2.1-6.5-4.8-6.5-4.8l6.5-12.7l-10.8-12.7l-1.8-4.4l1.8-1.8l-2.2-8.3l-3.8-7.9l-1.7-7.5l10.5-7.2l-4.5-10.1l-2.2-10.6
		l15.2-6.1l5.3,0.8l15.6-7.8l0.3-8.9l-1-2.2l-1.8-4.8l0.2-5.1l-9-17.6l-5.3-5.3l-10-2.8l-2.7-8.5l3.9-6.8l0.1-4.5l-4-10.5l-5.2-7.1
		L124,0.2C54.9,3.8,0,61,0,131C0,200.2,53.6,256.8,121.6,261.7z"/>
</g>
<g>
	<path d="M65.6,155.5l-7.9,2.6c-2.7,0.9-5.1,0.8-7.2-0.3c-2.1-1.1-3.6-3-4.5-5.8l-7.3-22.6c-0.9-2.8-0.8-5.2,0.3-7.3
		c1.1-2.1,3-3.6,5.7-4.5l7.9-2.6c2.7-0.9,5.1-0.8,7.2,0.3c2.1,1.1,3.6,3,4.5,5.8l1,3.1c0.2,0.5,0,0.8-0.4,1l-1.8,0.6
		c-0.5,0.1-0.8,0-0.9-0.5l-1-3c-0.7-2-1.7-3.4-3-4.1c-1.4-0.7-3-0.8-5-0.2l-7.4,2.4c-1.9,0.6-3.2,1.6-3.9,3.1
		c-0.7,1.4-0.7,3.1,0,5.1l7.2,22.4c0.6,2,1.6,3.3,3,4.1c1.4,0.8,3,0.8,4.9,0.2l7.4-2.4c1.9-0.6,3.2-1.6,3.9-3
		c0.7-1.4,0.7-3.1,0.1-5.1l-1-3c-0.2-0.5,0-0.8,0.4-1l1.8-0.6c0.5-0.1,0.8,0,0.9,0.5l1,3.1c0.9,2.8,0.8,5.2-0.3,7.3
		C70.2,153.2,68.3,154.7,65.6,155.5z"/>
	<path d="M99.6,144.6l-7.8,2.5c-2.7,0.9-5.1,0.8-7.2-0.3c-2.1-1.1-3.6-3-4.5-5.8l-7.3-22.6c-0.9-2.8-0.8-5.2,0.3-7.3
		c1.1-2.1,3-3.6,5.7-4.5l7.8-2.5c2.7-0.9,5.1-0.8,7.2,0.3c2.1,1.1,3.6,3,4.5,5.8l7.3,22.6c0.9,2.8,0.8,5.2-0.3,7.3
		C104.2,142.2,102.3,143.7,99.6,144.6z M91.2,144.2l7.2-2.3c1.9-0.6,3.2-1.6,3.9-3c0.7-1.4,0.7-3.1,0.1-5.1l-7.2-22.4
		c-0.7-2-1.7-3.4-3-4.1c-1.4-0.7-3-0.8-5-0.2l-7.2,2.3c-1.9,0.6-3.2,1.6-3.9,3.1c-0.7,1.4-0.7,3.1,0,5.1l7.2,22.4
		c0.6,2,1.6,3.3,3,4.1C87.6,144.7,89.2,144.8,91.2,144.2z"/>
	<path d="M115.4,129.6l-0.7-2.3c-0.1-0.5,0-0.8,0.5-0.9l1.8-0.6c0.5-0.1,0.8,0,0.9,0.5l0.7,2.1c1.4,4.2,4.1,5.6,8.1,4.3l6.6-2.1
		c4.1-1.3,5.4-4.1,4.1-8.3l-0.9-2.6c-0.6-1.9-1.8-3.1-3.7-3.6c-1.9-0.6-3.9-0.7-6.2-0.5c-2.3,0.2-4.6,0.4-6.9,0.6s-4.5-0.1-6.4-1
		c-1.9-0.9-3.3-2.4-4-4.7l-1.1-3.5c-0.9-2.8-0.8-5.2,0.3-7.3c1.1-2.1,3-3.6,5.7-4.5l7.3-2.4c2.7-0.9,5.2-0.8,7.3,0.3
		c2.1,1.1,3.6,3,4.5,5.8l0.6,1.8c0.1,0.5,0,0.8-0.5,0.9l-1.8,0.6c-0.5,0.1-0.8,0-0.9-0.5l-0.5-1.6c-1.4-4.2-4.1-5.6-8.1-4.3
		l-6.5,2.1c-4,1.3-5.4,4.1-4,8.4l1,3.2c0.9,2.9,4.1,4,9.6,3.4c2.3-0.3,4.6-0.5,6.9-0.6c2.3-0.2,4.5,0.2,6.5,1.2
		c2,0.9,3.4,2.6,4.1,5.1l1,3.1c0.9,2.8,0.8,5.2-0.3,7.3c-1.1,2.1-3,3.6-5.7,4.5l-7.4,2.4c-2.7,0.9-5.2,0.8-7.3-0.3
		C117.7,134.3,116.2,132.4,115.4,129.6z"/>
	<path d="M162.8,124.2l-1.8,0.6c-0.5,0.1-0.8,0-0.9-0.5l-11.7-36.4c-0.1-0.4-0.4-0.5-0.8-0.4l-9.1,2.9c-0.5,0.2-0.8,0-1-0.4
		l-0.5-1.4c-0.1-0.5,0-0.8,0.5-0.9l22.7-7.3c0.5-0.2,0.8,0,1,0.5l0.5,1.4c0.1,0.5,0,0.8-0.5,0.9l-9.1,2.9c-0.4,0.1-0.6,0.4-0.4,0.8
		l11.7,36.4C163.3,123.8,163.2,124.1,162.8,124.2z"/>
	<path d="M179.3,118.9l-2,0.6c-0.5,0.1-0.7-0.1-0.7-0.6l0-43.1c0-0.5,0.2-0.9,0.6-1l3-1c0.4-0.1,0.8,0,1.1,0.5l25.1,35
		c0.3,0.5,0.2,0.8-0.2,0.9l-2,0.6c-0.4,0.1-0.8,0-1.1-0.5l-6.7-9l-16.5,5.3l-0.2,11.2C179.9,118.4,179.7,118.7,179.3,118.9z
		 M179.8,77.8l0.3,25.7l14.8-4.8l-14.9-21L179.8,77.8z"/>
	<path d="M95.7,203.6l-1.8,0.6c-0.4,0.1-0.7,0-0.9-0.6l-12.6-39c-0.2-0.5,0-0.8,0.4-1l19.4-6.3c0.5-0.2,0.8,0,1,0.5l0.5,1.4
		c0.1,0.5,0,0.8-0.5,0.9l-16.3,5.2c-0.4,0.1-0.6,0.4-0.4,0.8l4.9,15.3c0.1,0.3,0.4,0.4,0.8,0.3l14.6-4.7c0.5-0.1,0.8,0,0.9,0.5
		l0.5,1.5c0.1,0.5,0,0.8-0.5,0.9l-14.6,4.7c-0.4,0.1-0.6,0.4-0.5,0.7l5.5,17.2C96.3,203.1,96.2,203.5,95.7,203.6z"/>
	<path d="M124.6,194.3l-1.8,0.6c-0.4,0.1-0.7,0-0.9-0.6l-12.6-39c-0.2-0.5,0-0.8,0.4-1l14.4-4.6c2.7-0.9,5.2-0.8,7.3,0.3
		c2.1,1.1,3.6,3,4.5,5.8l1.9,6c0.8,2.4,0.8,4.5,0.1,6.4c-0.7,1.9-2,3.4-4,4.5l0.1,0.3l12.6,13.5c0.4,0.4,0.3,0.7-0.2,0.9l-2,0.6
		c-0.5,0.2-1,0-1.4-0.4L130.6,174l-10,3.2c-0.4,0.1-0.6,0.4-0.4,0.8l4.9,15.3C125.3,193.8,125.1,194.1,124.6,194.3z M119.7,174.5
		l10.9-3.5c1.9-0.6,3.3-1.6,4-3.1c0.7-1.4,0.7-3.1,0.1-5.1l-1.9-5.9c-0.6-2-1.7-3.3-3.1-4.1c-1.4-0.8-3.1-0.8-5-0.2l-10.9,3.5
		c-0.4,0.1-0.6,0.4-0.4,0.8l5.5,17.2C119,174.5,119.3,174.6,119.7,174.5z"/>
	<path d="M146.5,143.3l12.6,39c0.2,0.5,0,0.8-0.5,1l-1.8,0.6c-0.4,0.1-0.7,0-0.9-0.6l-12.6-39c-0.2-0.5,0-0.8,0.4-1l1.8-0.6
		C146,142.6,146.3,142.8,146.5,143.3z"/>
	<path d="M169.3,179.9l-2,0.6c-0.5,0.1-0.7-0.1-0.7-0.6l0-43.1c0-0.5,0.2-0.9,0.6-1l3-1c0.4-0.1,0.8,0,1.1,0.5l25.1,35
		c0.3,0.5,0.2,0.8-0.2,0.9l-2,0.7c-0.4,0.1-0.8,0-1.1-0.5l-6.7-9l-16.5,5.3l-0.2,11.2C169.9,179.4,169.7,179.8,169.3,179.9z
		 M169.7,138.8l0.3,25.7l14.8-4.8l-14.9-21L169.7,138.8z"/>
</g>
</svg>
